<svg xmlns="http://www.w3.org/2000/svg" height="10" width="10" viewBox="0 0 640 640"><!--!Font Awesome Free 7.0.1 by @fontawesome - https://fontawesome.com License - https://fontawesome.com/license/free Copyright 2025 Fonticons, Inc.--><path opacity=".4" fill="#000000" d="M128 320C128 302.3 142.3 288 160 288L544 288C561.7 288 576 302.3 576 320C576 337.7 561.7 352 544 352L160 352C142.3 352 128 337.7 128 320z"/><path fill="#000000" d="M512 160C512 142.3 497.7 128 480 128L96 128C78.3 128 64 142.3 64 160C64 177.7 78.3 192 96 192L480 192C497.7 192 512 177.7 512 160zM512 480C512 462.3 497.7 448 480 448L96 448C78.3 448 64 462.3 64 480C64 497.7 78.3 512 96 512L480 512C497.7 512 512 497.7 512 480z"/></svg>