<?xml version="1.0" encoding="UTF-8"?>
<!--Created by Chris Connelly at Bass Daddy Devices-->
<svg width="481" height="512" viewBox="0 0 481 512" xmlns="http://www.w3.org/2000/svg">
    <path id="cookbooklogo" fill="#000000" stroke="none"
        d="M 207.5 511.900024 C 82.699997 511.799988 55.399994 511.599976 50 510.400024 C 46.400002 509.599976 39.699997 507.099976 35 504.799988 C 28.599998 501.599976 24.599998 498.700012 19 493 C 13.300003 487.299988 10.400002 483.400024 7.199997 477 C 4.900002 472.299988 2.300003 465.400024 1.5 461.5 C 0.300003 455.5 0 426 0 256 C 0 86 0.199997 56.5 1.5 50.5 C 2.300003 46.700012 4.900002 39.700012 7.199997 35 C 10.400002 28.599976 13.300003 24.599976 19 19 C 24.699997 13.400024 28.599998 10.400024 35 7.200012 C 39.699997 4.900024 46.599998 2.299988 50.5 1.5 C 56.399994 0.299988 80.100006 0 208 0 C 335.899994 0 359.600006 0.299988 365.5 1.5 C 369.399994 2.299988 376.299988 4.900024 381 7.200012 C 387.399994 10.400024 391.399994 13.299988 397 19 C 402.600006 24.700012 405.600006 28.599976 408.799988 35 C 411.100006 39.700012 413.700012 46.700012 414.5 50.5 C 415.700012 56.5 416 86 416 256 C 416 426 415.799988 455.5 414.5 461.5 C 413.700012 465.400024 411.100006 472.299988 408.799988 477 C 405.600006 483.400024 402.700012 487.400024 397 493 C 391.299988 498.599976 387.399994 501.599976 381 504.799988 C 376.299988 507.099976 369.399994 509.700012 365.5 510.5 C 359.5 511.700012 336 511.900024 207.5 511.900024 Z M 176.299988 419.600006 C 178.5 419.399994 181.200012 418.200012 182.600006 416.899994 C 183.899994 415.700012 185.5 413 186 411.100006 C 186.600006 408.799988 187 350.5 187 248 C 187 147.200012 186.600006 87.200012 186 85.100006 C 185.5 83.200012 184 80.700012 182.799988 79.399994 C 181.600006 78.100006 179.100006 76.799988 177.299988 76.399994 C 175.399994 76 172.600006 76.299988 170.899994 77 C 169.199997 77.700012 167 79.399994 165.899994 80.700012 C 164 83.200012 163.899994 85.700012 163.899994 247.899994 C 163.899994 412.600006 163.899994 412.600006 166 415.299988 C 167.199997 416.799988 169.100006 418.399994 170.300003 418.899994 C 171.5 419.399994 174.100006 419.600006 176.299988 419.399994 Z M 465.200012 415.700012 C 462.099976 416 459.400024 415.5 457.200012 414.399994 C 455.400024 413.5 452.700012 411.100006 451.200012 409.200012 C 448.5 405.700012 448.5 405.700012 448.200012 369.299988 C 447.900024 337 448.099976 332.600006 449.599976 329.399994 C 450.5 327.5 452.900024 324.700012 454.799988 323.200012 C 457.700012 321 459.400024 320.5 464 320.5 C 468.599976 320.5 470.299988 321 473.200012 323.200012 C 475.099976 324.700012 477.5 327.399994 478.400024 329.399994 C 479.799988 332.399994 480 337.5 480 368.100006 C 480 398.700012 479.799988 403.799988 478.400024 406.799988 C 477.5 408.700012 475.200012 411.399994 473.400024 412.899994 C 471.200012 414.600006 468.400024 415.600006 465.299988 415.899994 Z M 313.899994 373.700012 C 316.899994 373.399994 319.100006 372.5 320.899994 370.600006 C 323.5 368 323.5 368 323.799988 249.700012 C 324 160.299988 323.799988 130.799988 322.899994 128.600006 C 322.200012 127 320.299988 124.899994 318.600006 123.899994 C 316.899994 122.899994 314.100006 122 312.299988 122 C 310 122 308 123 305.299988 125.399994 C 301.600006 128.799988 301.600006 128.799988 301.299988 246.5 C 301.100006 350 301.200012 364.5 302.600006 367.299988 C 303.399994 369.100006 305.399994 371.299988 306.899994 372.299988 C 308.799988 373.5 311 373.899994 314 373.600006 Z M 105.600006 351 C 107.5 351 110.399994 350.299988 111.899994 349.5 C 113.399994 348.700012 115.5 346.5 116.399994 344.600006 C 117.899994 341.5 118 332.100006 118 248 C 118 166.799988 117.800003 154.399994 116.5 151.600006 C 115.699997 149.799988 113.699997 147.600006 112.100006 146.700012 C 110.5 145.799988 107.899994 145 106.300003 145 C 104.699997 145 101.800003 146 100 147.299988 C 97.699997 148.799988 96.300003 150.700012 95.800003 153.100006 C 95.399994 155 95.100006 199 95.300003 250.899994 C 95.600006 345.200012 95.600006 345.200012 98.899994 348.200012 C 101.199997 350.299988 103.199997 351.100006 105.699997 351.100006 Z M 244.299988 328 C 247.5 328 248.899994 327.299988 251.700012 324.600006 C 255.100006 321.200012 255.100006 321.200012 255.100006 248 C 255.100006 174.799988 255.100006 174.799988 251.700012 171.399994 C 249 168.700012 247.5 168 244.299988 168 C 241.700012 168 239.399994 168.799988 237.600006 170.200012 C 236.100006 171.399994 234.200012 173.899994 233.5 175.700012 C 232.399994 178.399994 232.100006 191.600006 232.100006 248.100006 C 232.100006 304.600006 232.399994 317.799988 233.5 320.5 C 234.299988 322.299988 236.100006 324.799988 237.600006 326 C 239.399994 327.399994 241.799988 328.200012 244.299988 328.200012 Z M 465.299988 287.700012 C 462.200012 288 459.5 287.5 457.299988 286.399994 C 455.5 285.5 452.799988 283.100006 451.299988 281.200012 C 448.599976 277.700012 448.599976 277.700012 448.299988 241.299988 C 448 209 448.200012 204.600006 449.700012 201.399994 C 450.599976 199.5 453 196.700012 454.900024 195.200012 C 457.799988 193 459.5 192.5 464.099976 192.5 C 468.700012 192.5 470.400024 193 473.299988 195.200012 C 475.200012 196.700012 477.599976 199.399994 478.5 201.399994 C 479.900024 204.399994 480.099976 209.5 480.099976 240.100006 C 480.099976 270.700012 479.900024 275.799988 478.5 278.799988 C 477.599976 280.700012 475.299988 283.399994 473.5 284.899994 C 471.299988 286.600006 468.5 287.600006 465.400024 287.899994 Z M 37.5 282 C 39.699997 282 42.599998 281.299988 43.800003 280.399994 C 45 279.5 46.699997 277.5 47.5 275.899994 C 48.699997 273.600006 49 268.200012 49 247.899994 C 49 227.600006 48.699997 222.200012 47.5 219.899994 C 46.699997 218.299988 45 216.299988 43.800003 215.399994 C 42.599998 214.5 39.699997 213.799988 37.5 213.799988 C 35.300003 213.799988 32.400002 214.5 31.199997 215.399994 C 30 216.299988 28.300003 218.299988 27.5 219.899994 C 26.300003 222.200012 26 227.600006 26 247.899994 C 26 268.200012 26.300003 273.600006 27.5 275.899994 C 28.300003 277.5 30 279.5 31.199997 280.399994 C 32.400002 281.299988 35.300003 282 37.5 282 Z M 381.5 282 C 383.700012 282 386.600006 281.299988 387.799988 280.399994 C 389 279.5 390.700012 277.5 391.5 275.899994 C 392.700012 273.600006 393 268.200012 393 247.899994 C 393 227.600006 392.700012 222.200012 391.5 219.899994 C 390.700012 218.299988 389 216.299988 387.799988 215.399994 C 386.600006 214.5 383.700012 213.799988 381.5 213.799988 C 379.299988 213.799988 376.399994 214.5 375.200012 215.399994 C 374 216.299988 372.299988 218.299988 371.5 219.899994 C 370.299988 222.200012 370 227.600006 370 247.899994 C 370 268.200012 370.299988 273.600006 371.5 275.899994 C 372.299988 277.5 374 279.5 375.200012 280.399994 C 376.399994 281.299988 379.299988 282 381.5 282 Z M 465.200012 159.700012 C 462.099976 160 459.400024 159.5 457.200012 158.399994 C 455.400024 157.5 452.700012 155.100006 451.200012 153.200012 C 448.5 149.700012 448.5 149.700012 448.200012 113.299988 C 447.900024 81 448.099976 76.600006 449.599976 73.399994 C 450.5 71.5 452.900024 68.700012 454.799988 67.200012 C 457.700012 65 459.400024 64.5 464 64.5 C 468.599976 64.5 470.299988 65 473.200012 67.200012 C 475.099976 68.700012 477.5 71.399994 478.400024 73.399994 C 479.799988 76.399994 480 81.5 480 112.100006 C 480 142.700012 479.799988 147.799988 478.400024 150.799988 C 477.5 152.700012 475.200012 155.399994 473.400024 156.899994 C 471.200012 158.600006 468.400024 159.600006 465.299988 159.899994 Z" />
</svg>