<svg xmlns="http://www.w3.org/2000/svg" version="1.1" xmlns:xlink="http://www.w3.org/1999/xlink" width="1000" height="1000"><style>
    #light-icon {
      display: inline;
    }
    #dark-icon {
      display: none;
    }

    @media (prefers-color-scheme: dark) {
      #light-icon {
        display: none;
      }
      #dark-icon {
        display: inline;
      }
    }
  </style><g id="light-icon"><svg xmlns="http://www.w3.org/2000/svg" version="1.1" xmlns:xlink="http://www.w3.org/1999/xlink" width="1000" height="1000"><g><g transform="matrix(1.5625,0,0,1.5625,0,0)"><svg xmlns="http://www.w3.org/2000/svg" version="1.1" xmlns:xlink="http://www.w3.org/1999/xlink" width="640" height="640"><svg xmlns="http://www.w3.org/2000/svg" viewBox="0 0 640 640"><!--!Font Awesome Pro 7.0.0 by @fontawesome - https://fontawesome.com License - https://fontawesome.com/license (Commercial License) Copyright 2025 Fonticons, Inc.--><path d="M287.5 575.9C162.7 575.8 135.4 575.6 130 574.4C126.4 573.6 119.7 571.1 115 568.8C108.6 565.6 104.6 562.7 99 557C93.3 551.3 90.4 547.4 87.2 541C84.9 536.3 82.3 529.4 81.5 525.5C80.3 519.5 80 490 80 320C80 150 80.2 120.5 81.5 114.5C82.3 110.7 84.9 103.7 87.2 99C90.4 92.6 93.3 88.6 99 83C104.7 77.4 108.6 74.4 115 71.2C119.7 68.9 126.6 66.3 130.5 65.5C136.4 64.3 160.1 64 288 64C415.9 64 439.6 64.3 445.5 65.5C449.4 66.3 456.3 68.9 461 71.2C467.4 74.4 471.4 77.3 477 83C482.6 88.7 485.6 92.6 488.8 99C491.1 103.7 493.7 110.7 494.5 114.5C495.7 120.5 496 150 496 320C496 490 495.8 519.5 494.5 525.5C493.7 529.4 491.1 536.3 488.8 541C485.6 547.4 482.7 551.4 477 557C471.3 562.6 467.4 565.6 461 568.8C456.3 571.1 449.4 573.7 445.5 574.5C439.5 575.7 416 575.9 287.5 575.9zM256.3 483.6C258.5 483.4 261.2 482.2 262.6 480.9C263.9 479.7 265.5 477 266 475.1C266.6 472.8 267 414.5 267 312C267 211.2 266.6 151.2 266 149.1C265.5 147.2 264 144.7 262.8 143.4C261.6 142.1 259.1 140.8 257.3 140.4C255.4 140 252.6 140.3 250.9 141C249.2 141.7 247 143.4 245.9 144.7C244 147.2 243.9 149.7 243.9 311.9C243.9 476.6 243.9 476.6 246 479.3C247.2 480.8 249.1 482.4 250.3 482.9C251.5 483.4 254.1 483.6 256.3 483.4zM545.2 479.7C542.1 480 539.4 479.5 537.2 478.4C535.4 477.5 532.7 475.1 531.2 473.2C528.5 469.7 528.5 469.7 528.2 433.3C527.9 401 528.1 396.6 529.6 393.4C530.5 391.5 532.9 388.7 534.8 387.2C537.7 385 539.4 384.5 544 384.5C548.6 384.5 550.3 385 553.2 387.2C555.1 388.7 557.5 391.4 558.4 393.4C559.8 396.4 560 401.5 560 432.1C560 462.7 559.8 467.8 558.4 470.8C557.5 472.7 555.2 475.4 553.4 476.9C551.2 478.6 548.4 479.6 545.3 479.9zM393.9 437.7C396.9 437.4 399.1 436.5 400.9 434.6C403.5 432 403.5 432 403.8 313.7C404 224.3 403.8 194.8 402.9 192.6C402.2 191 400.3 188.9 398.6 187.9C396.9 186.9 394.1 186 392.3 186C390 186 388 187 385.3 189.4C381.6 192.8 381.6 192.8 381.3 310.5C381.1 414 381.2 428.5 382.6 431.3C383.4 433.1 385.4 435.3 386.9 436.3C388.8 437.5 391 437.9 394 437.6zM185.6 415C187.5 415 190.4 414.3 191.9 413.5C193.4 412.7 195.5 410.5 196.4 408.6C197.9 405.5 198 396.1 198 312C198 230.8 197.8 218.4 196.5 215.6C195.7 213.8 193.7 211.6 192.1 210.7C190.5 209.8 187.9 209 186.3 209C184.7 209 181.8 210 180 211.3C177.7 212.8 176.3 214.7 175.8 217.1C175.4 219 175.1 263 175.3 314.9C175.6 409.2 175.6 409.2 178.9 412.2C181.2 414.3 183.2 415.1 185.7 415.1zM324.3 392C327.5 392 328.9 391.3 331.7 388.6C335.1 385.2 335.1 385.2 335.1 312C335.1 238.8 335.1 238.8 331.7 235.4C329 232.7 327.5 232 324.3 232C321.7 232 319.4 232.8 317.6 234.2C316.1 235.4 314.2 237.9 313.5 239.7C312.4 242.4 312.1 255.6 312.1 312.1C312.1 368.6 312.4 381.8 313.5 384.5C314.3 386.3 316.1 388.8 317.6 390C319.4 391.4 321.8 392.2 324.3 392.2zM545.3 351.7C542.2 352 539.5 351.5 537.3 350.4C535.5 349.5 532.8 347.1 531.3 345.2C528.6 341.7 528.6 341.7 528.3 305.3C528 273 528.2 268.6 529.7 265.4C530.6 263.5 533 260.7 534.9 259.2C537.8 257 539.5 256.5 544.1 256.5C548.7 256.5 550.4 257 553.3 259.2C555.2 260.7 557.6 263.4 558.5 265.4C559.9 268.4 560.1 273.5 560.1 304.1C560.1 334.7 559.9 339.8 558.5 342.8C557.6 344.7 555.3 347.4 553.5 348.9C551.3 350.6 548.5 351.6 545.4 351.9zM117.5 346C119.7 346 122.6 345.3 123.8 344.4C125 343.5 126.7 341.5 127.5 339.9C128.7 337.6 129 332.2 129 311.9C129 291.6 128.7 286.2 127.5 283.9C126.7 282.3 125 280.3 123.8 279.4C122.6 278.5 119.7 277.8 117.5 277.8C115.3 277.8 112.4 278.5 111.2 279.4C110 280.3 108.3 282.3 107.5 283.9C106.3 286.2 106 291.6 106 311.9C106 332.2 106.3 337.6 107.5 339.9C108.3 341.5 110 343.5 111.2 344.4C112.4 345.3 115.3 346 117.5 346zM461.5 346C463.7 346 466.6 345.3 467.8 344.4C469 343.5 470.7 341.5 471.5 339.9C472.7 337.6 473 332.2 473 311.9C473 291.6 472.7 286.2 471.5 283.9C470.7 282.3 469 280.3 467.8 279.4C466.6 278.5 463.7 277.8 461.5 277.8C459.3 277.8 456.4 278.5 455.2 279.4C454 280.3 452.3 282.3 451.5 283.9C450.3 286.2 450 291.6 450 311.9C450 332.2 450.3 337.6 451.5 339.9C452.3 341.5 454 343.5 455.2 344.4C456.4 345.3 459.3 346 461.5 346zM545.2 223.7C542.1 224 539.4 223.5 537.2 222.4C535.4 221.5 532.7 219.1 531.2 217.2C528.5 213.7 528.5 213.7 528.2 177.3C527.9 145 528.1 140.6 529.6 137.4C530.5 135.5 532.9 132.7 534.8 131.2C537.7 129 539.4 128.5 544 128.5C548.6 128.5 550.3 129 553.2 131.2C555.1 132.7 557.5 135.4 558.4 137.4C559.8 140.4 560 145.5 560 176.1C560 206.7 559.8 211.8 558.4 214.8C557.5 216.7 555.2 219.4 553.4 220.9C551.2 222.6 548.4 223.6 545.3 223.9z"></path></svg></svg></g></g></svg></g><g id="dark-icon"><svg xmlns="http://www.w3.org/2000/svg" version="1.1" xmlns:xlink="http://www.w3.org/1999/xlink" width="1000" height="1000"><g><g transform="matrix(1.953125,0,0,1.953125,30.2734375,0)"><svg xmlns="http://www.w3.org/2000/svg" version="1.1" xmlns:xlink="http://www.w3.org/1999/xlink" width="481" height="512"><svg width="481" height="512" viewBox="0 0 481 512" xmlns="http://www.w3.org/2000/svg">
    <path id="Path" fill="#ffffff" stroke="none" d="M 207.5 511.900024 C 82.699997 511.799988 55.399994 511.599976 50 510.400024 C 46.400002 509.599976 39.699997 507.099976 35 504.799988 C 28.599998 501.599976 24.599998 498.700012 19 493 C 13.300003 487.299988 10.400002 483.400024 7.199997 477 C 4.900002 472.299988 2.300003 465.400024 1.5 461.5 C 0.300003 455.5 0 426 0 256 C 0 86 0.199997 56.5 1.5 50.5 C 2.300003 46.700012 4.900002 39.700012 7.199997 35 C 10.400002 28.599976 13.300003 24.599976 19 19 C 24.699997 13.400024 28.599998 10.400024 35 7.200012 C 39.699997 4.900024 46.599998 2.299988 50.5 1.5 C 56.399994 0.299988 80.100006 0 208 0 C 335.899994 0 359.600006 0.299988 365.5 1.5 C 369.399994 2.299988 376.299988 4.900024 381 7.200012 C 387.399994 10.400024 391.399994 13.299988 397 19 C 402.600006 24.700012 405.600006 28.599976 408.799988 35 C 411.100006 39.700012 413.700012 46.700012 414.5 50.5 C 415.700012 56.5 416 86 416 256 C 416 426 415.799988 455.5 414.5 461.5 C 413.700012 465.400024 411.100006 472.299988 408.799988 477 C 405.600006 483.400024 402.700012 487.400024 397 493 C 391.299988 498.599976 387.399994 501.599976 381 504.799988 C 376.299988 507.099976 369.399994 509.700012 365.5 510.5 C 359.5 511.700012 336 511.900024 207.5 511.900024 Z M 176.299988 419.600006 C 178.5 419.399994 181.200012 418.200012 182.600006 416.899994 C 183.899994 415.700012 185.5 413 186 411.100006 C 186.600006 408.799988 187 350.5 187 248 C 187 147.200012 186.600006 87.200012 186 85.100006 C 185.5 83.200012 184 80.700012 182.799988 79.399994 C 181.600006 78.100006 179.100006 76.799988 177.299988 76.399994 C 175.399994 76 172.600006 76.299988 170.899994 77 C 169.199997 77.700012 167 79.399994 165.899994 80.700012 C 164 83.200012 163.899994 85.700012 163.899994 247.899994 C 163.899994 412.600006 163.899994 412.600006 166 415.299988 C 167.199997 416.799988 169.100006 418.399994 170.300003 418.899994 C 171.5 419.399994 174.100006 419.600006 176.299988 419.399994 Z M 465.200012 415.700012 C 462.099976 416 459.400024 415.5 457.200012 414.399994 C 455.400024 413.5 452.700012 411.100006 451.200012 409.200012 C 448.5 405.700012 448.5 405.700012 448.200012 369.299988 C 447.900024 337 448.099976 332.600006 449.599976 329.399994 C 450.5 327.5 452.900024 324.700012 454.799988 323.200012 C 457.700012 321 459.400024 320.5 464 320.5 C 468.599976 320.5 470.299988 321 473.200012 323.200012 C 475.099976 324.700012 477.5 327.399994 478.400024 329.399994 C 479.799988 332.399994 480 337.5 480 368.100006 C 480 398.700012 479.799988 403.799988 478.400024 406.799988 C 477.5 408.700012 475.200012 411.399994 473.400024 412.899994 C 471.200012 414.600006 468.400024 415.600006 465.299988 415.899994 Z M 313.899994 373.700012 C 316.899994 373.399994 319.100006 372.5 320.899994 370.600006 C 323.5 368 323.5 368 323.799988 249.700012 C 324 160.299988 323.799988 130.799988 322.899994 128.600006 C 322.200012 127 320.299988 124.899994 318.600006 123.899994 C 316.899994 122.899994 314.100006 122 312.299988 122 C 310 122 308 123 305.299988 125.399994 C 301.600006 128.799988 301.600006 128.799988 301.299988 246.5 C 301.100006 350 301.200012 364.5 302.600006 367.299988 C 303.399994 369.100006 305.399994 371.299988 306.899994 372.299988 C 308.799988 373.5 311 373.899994 314 373.600006 Z M 105.600006 351 C 107.5 351 110.399994 350.299988 111.899994 349.5 C 113.399994 348.700012 115.5 346.5 116.399994 344.600006 C 117.899994 341.5 118 332.100006 118 248 C 118 166.799988 117.800003 154.399994 116.5 151.600006 C 115.699997 149.799988 113.699997 147.600006 112.100006 146.700012 C 110.5 145.799988 107.899994 145 106.300003 145 C 104.699997 145 101.800003 146 100 147.299988 C 97.699997 148.799988 96.300003 150.700012 95.800003 153.100006 C 95.399994 155 95.100006 199 95.300003 250.899994 C 95.600006 345.200012 95.600006 345.200012 98.899994 348.200012 C 101.199997 350.299988 103.199997 351.100006 105.699997 351.100006 Z M 244.299988 328 C 247.5 328 248.899994 327.299988 251.700012 324.600006 C 255.100006 321.200012 255.100006 321.200012 255.100006 248 C 255.100006 174.799988 255.100006 174.799988 251.700012 171.399994 C 249 168.700012 247.5 168 244.299988 168 C 241.700012 168 239.399994 168.799988 237.600006 170.200012 C 236.100006 171.399994 234.200012 173.899994 233.5 175.700012 C 232.399994 178.399994 232.100006 191.600006 232.100006 248.100006 C 232.100006 304.600006 232.399994 317.799988 233.5 320.5 C 234.299988 322.299988 236.100006 324.799988 237.600006 326 C 239.399994 327.399994 241.799988 328.200012 244.299988 328.200012 Z M 465.299988 287.700012 C 462.200012 288 459.5 287.5 457.299988 286.399994 C 455.5 285.5 452.799988 283.100006 451.299988 281.200012 C 448.599976 277.700012 448.599976 277.700012 448.299988 241.299988 C 448 209 448.200012 204.600006 449.700012 201.399994 C 450.599976 199.5 453 196.700012 454.900024 195.200012 C 457.799988 193 459.5 192.5 464.099976 192.5 C 468.700012 192.5 470.400024 193 473.299988 195.200012 C 475.200012 196.700012 477.599976 199.399994 478.5 201.399994 C 479.900024 204.399994 480.099976 209.5 480.099976 240.100006 C 480.099976 270.700012 479.900024 275.799988 478.5 278.799988 C 477.599976 280.700012 475.299988 283.399994 473.5 284.899994 C 471.299988 286.600006 468.5 287.600006 465.400024 287.899994 Z M 37.5 282 C 39.699997 282 42.599998 281.299988 43.800003 280.399994 C 45 279.5 46.699997 277.5 47.5 275.899994 C 48.699997 273.600006 49 268.200012 49 247.899994 C 49 227.600006 48.699997 222.200012 47.5 219.899994 C 46.699997 218.299988 45 216.299988 43.800003 215.399994 C 42.599998 214.5 39.699997 213.799988 37.5 213.799988 C 35.300003 213.799988 32.400002 214.5 31.199997 215.399994 C 30 216.299988 28.300003 218.299988 27.5 219.899994 C 26.300003 222.200012 26 227.600006 26 247.899994 C 26 268.200012 26.300003 273.600006 27.5 275.899994 C 28.300003 277.5 30 279.5 31.199997 280.399994 C 32.400002 281.299988 35.300003 282 37.5 282 Z M 381.5 282 C 383.700012 282 386.600006 281.299988 387.799988 280.399994 C 389 279.5 390.700012 277.5 391.5 275.899994 C 392.700012 273.600006 393 268.200012 393 247.899994 C 393 227.600006 392.700012 222.200012 391.5 219.899994 C 390.700012 218.299988 389 216.299988 387.799988 215.399994 C 386.600006 214.5 383.700012 213.799988 381.5 213.799988 C 379.299988 213.799988 376.399994 214.5 375.200012 215.399994 C 374 216.299988 372.299988 218.299988 371.5 219.899994 C 370.299988 222.200012 370 227.600006 370 247.899994 C 370 268.200012 370.299988 273.600006 371.5 275.899994 C 372.299988 277.5 374 279.5 375.200012 280.399994 C 376.399994 281.299988 379.299988 282 381.5 282 Z M 465.200012 159.700012 C 462.099976 160 459.400024 159.5 457.200012 158.399994 C 455.400024 157.5 452.700012 155.100006 451.200012 153.200012 C 448.5 149.700012 448.5 149.700012 448.200012 113.299988 C 447.900024 81 448.099976 76.600006 449.599976 73.399994 C 450.5 71.5 452.900024 68.700012 454.799988 67.200012 C 457.700012 65 459.400024 64.5 464 64.5 C 468.599976 64.5 470.299988 65 473.200012 67.200012 C 475.099976 68.700012 477.5 71.399994 478.400024 73.399994 C 479.799988 76.399994 480 81.5 480 112.100006 C 480 142.700012 479.799988 147.799988 478.400024 150.799988 C 477.5 152.700012 475.200012 155.399994 473.400024 156.899994 C 471.200012 158.600006 468.400024 159.600006 465.299988 159.899994 Z"></path>
</svg></svg></g></g></svg></g></svg>